<?xml version="1.0" encoding="UTF-8"?>
<svg xmlns="http://www.w3.org/2000/svg" width="832" height="540" viewBox="0 0 832 540" style="max-width: 832px; width: 100%; height: auto;" role="img">
  <rect width="100%" height="100%" rx="14" fill="#0a0810"/>
  <rect x="0.5" y="0.5" width="831" height="539" rx="14" fill="none" stroke="#2d2b31" stroke-width="1"/>
  <text x="416" y="23" text-anchor="middle" font-family='ui-monospace, "Cascadia Mono", "SF Mono", Menlo, Consolas, "DejaVu Sans Mono", monospace' font-size="13" fill="#8a8a8a">torlink</text>
  <g font-family='ui-monospace, "Cascadia Mono", "SF Mono", Menlo, Consolas, "DejaVu Sans Mono", monospace' font-size="16" fill="#ddd8ea">
    <text x="99.2" y="84" textLength="9.6" lengthAdjust="spacingAndGlyphs" xml:space="preserve" fill="#5ae87a" font-weight="600">𐓏</text>
    <rect x="51.2" y="90" width="9.6" height="11" fill="#fbf8ff"/>
    <rect x="60.8" y="90" width="9.6" height="22" fill="#f8f1ff"/>
    <rect x="70.4" y="90" width="9.6" height="11" fill="#f4ebff"/>
    <rect x="89.6" y="90" width="9.6" height="22" fill="#edddff"/>
    <rect x="99.2" y="90" width="9.6" height="11" fill="#ead6fe"/>
    <rect x="108.8" y="90" width="9.6" height="22" fill="#e6d0fe"/>
    <rect x="128" y="90" width="9.6" height="22" fill="#dfc2fe"/>
    <rect x="137.6" y="90" width="9.6" height="11" fill="#dcbbfe"/>
    <rect x="147.2" y="90" width="9.6" height="22" fill="#d8b5fe"/>
    <rect x="166.4" y="90" width="9.6" height="22" fill="#d3b0fe"/>
    <rect x="204.8" y="90" width="9.6" height="22" fill="#c8a7fd"/>
    <rect x="224" y="90" width="9.6" height="22" fill="#c3a2fc"/>
    <rect x="233.6" y="101" width="9.6" height="11" fill="#c0a0fc"/>
    <rect x="252.8" y="90" width="9.6" height="22" fill="#bb9cfc"/>
    <rect x="272" y="90" width="9.6" height="22" fill="#b697fb"/>
    <rect x="281.6" y="101" width="9.6" height="11" fill="#b395fb"/>
    <rect x="291.2" y="90" width="9.6" height="11" fill="#b193fb"/>
    <rect x="310.4" y="101" width="9.6" height="11" fill="#ab8ffa"/>
    <rect x="320" y="101" width="9.6" height="11" fill="#a98cfa"/>
    <rect x="339.2" y="90" width="9.6" height="22" fill="#a488f8"/>
    <rect x="348.8" y="90" width="9.6" height="11" fill="#a286f6"/>
    <rect x="358.4" y="90" width="9.6" height="22" fill="#a084f4"/>
    <rect x="377.6" y="90" width="9.6" height="22" fill="#9d80f1"/>
    <rect x="387.2" y="90" width="9.6" height="11" fill="#9b7df0"/>
    <rect x="396.8" y="101" width="9.6" height="11" fill="#997bee"/>
    <rect x="60.8" y="112" width="9.6" height="22" fill="#9577eb"/>
    <rect x="89.6" y="112" width="9.6" height="22" fill="#8f71e6"/>
    <rect x="99.2" y="123" width="9.6" height="11" fill="#8d6fe4"/>
    <rect x="108.8" y="112" width="9.6" height="22" fill="#8b6de3"/>
    <rect x="128" y="112" width="9.6" height="22" fill="#8768df"/>
    <rect x="137.6" y="112" width="9.6" height="11" fill="#8566de"/>
    <rect x="147.2" y="123" width="9.6" height="11" fill="#8364dc"/>
    <rect x="166.4" y="112" width="9.6" height="22" fill="#7f60d9"/>
    <rect x="176" y="123" width="9.6" height="11" fill="#7e5ed7"/>
    <rect x="185.6" y="123" width="9.6" height="11" fill="#7c5cd5"/>
    <rect x="204.8" y="112" width="9.6" height="22" fill="#7759ce"/>
    <rect x="224" y="112" width="9.6" height="22" fill="#7356c8"/>
    <rect x="243.2" y="112" width="9.6" height="11" fill="#6f53c1"/>
    <rect x="252.8" y="112" width="9.6" height="22" fill="#6c51bd"/>
    <rect x="272" y="112" width="9.6" height="22" fill="#684eb7"/>
    <rect x="291.2" y="112" width="9.6" height="22" fill="#644bb0"/>
    <rect x="339.2" y="112" width="9.6" height="22" fill="#59439f"/>
    <rect x="348.8" y="112" width="9.6" height="11" fill="#57429b"/>
    <rect x="358.4" y="123" width="9.6" height="11" fill="#554098"/>
    <rect x="377.6" y="112" width="9.6" height="22" fill="#503d91"/>
    <rect x="387.2" y="123" width="9.6" height="11" fill="#4e3c8d"/>
    <rect x="396.8" y="112" width="9.6" height="11" fill="#4c3a8a"/>
    <text x="41.6" y="150" textLength="748.8" lengthAdjust="spacingAndGlyphs" xml:space="preserve" fill="#6b6577">──────────────────────────────────────────────────────────────────────────────</text>
    <text x="60.8" y="194" textLength="28.8" lengthAdjust="spacingAndGlyphs" xml:space="preserve" fill-opacity="0.55">All</text>
    <text x="233.6" y="194" textLength="19.2" lengthAdjust="spacingAndGlyphs" xml:space="preserve" fill="#a78bfa">╭─</text>
    <text x="262.4" y="194" textLength="76.8" lengthAdjust="spacingAndGlyphs" xml:space="preserve" fill="#a78bfa" font-weight="600">Accounts</text>
    <text x="348.8" y="194" textLength="441.6" lengthAdjust="spacingAndGlyphs" xml:space="preserve" fill="#a78bfa">─────────────────────────────────────────────╮</text>
    <text x="60.8" y="216" textLength="48" lengthAdjust="spacingAndGlyphs" xml:space="preserve" fill-opacity="0.55">Games</text>
    <rect x="237.7" y="200" width="1.4" height="22" fill="#a78bfa"/>
    <text x="252.8" y="216" textLength="508.8" lengthAdjust="spacingAndGlyphs" xml:space="preserve" fill-opacity="0.55">Sign in to services that need an account to search or</text>
    <rect x="784.9" y="200" width="1.4" height="22" fill="#a78bfa"/>
    <text x="60.8" y="238" textLength="57.6" lengthAdjust="spacingAndGlyphs" xml:space="preserve" fill-opacity="0.55">Movies</text>
    <rect x="237.7" y="222" width="1.4" height="22" fill="#a78bfa"/>
    <text x="252.8" y="238" textLength="67.2" lengthAdjust="spacingAndGlyphs" xml:space="preserve" fill-opacity="0.55">stream.</text>
    <rect x="784.9" y="222" width="1.4" height="22" fill="#a78bfa"/>
    <text x="60.8" y="260" textLength="19.2" lengthAdjust="spacingAndGlyphs" xml:space="preserve" fill-opacity="0.55">TV</text>
    <rect x="237.7" y="244" width="1.4" height="22" fill="#a78bfa"/>
    <text x="252.8" y="260" textLength="9.6" lengthAdjust="spacingAndGlyphs" xml:space="preserve" fill="#a78bfa" font-weight="600">❯</text>
    <text x="272" y="260" textLength="19.2" lengthAdjust="spacingAndGlyphs" xml:space="preserve" fill="#86d6a2" font-weight="600">RD</text>
    <text x="329.6" y="260" textLength="9.6" lengthAdjust="spacingAndGlyphs" xml:space="preserve" fill="#86d6a2">✓</text>
    <text x="348.8" y="260" textLength="172.8" lengthAdjust="spacingAndGlyphs" xml:space="preserve" fill-opacity="0.55">premium · 60d left</text>
    <text x="521.6" y="260" textLength="9.6" lengthAdjust="spacingAndGlyphs" xml:space="preserve" fill="#a78bfa" font-weight="600">e</text>
    <text x="550.4" y="260" textLength="9.6" lengthAdjust="spacingAndGlyphs" xml:space="preserve" fill="#b9a7e6">↵</text>
    <text x="569.6" y="260" textLength="86.4" lengthAdjust="spacingAndGlyphs" xml:space="preserve" fill-opacity="0.55">switch  ·</text>
    <text x="675.2" y="260" textLength="9.6" lengthAdjust="spacingAndGlyphs" xml:space="preserve" fill="#b9a7e6">x</text>
    <text x="694.4" y="260" textLength="76.8" lengthAdjust="spacingAndGlyphs" xml:space="preserve" fill-opacity="0.55">sign out</text>
    <rect x="784.9" y="244" width="1.4" height="22" fill="#a78bfa"/>
    <text x="60.8" y="282" textLength="48" lengthAdjust="spacingAndGlyphs" xml:space="preserve" fill-opacity="0.55">Anime</text>
    <rect x="237.7" y="266" width="1.4" height="22" fill="#a78bfa"/>
    <text x="339.2" y="282" textLength="163.2" lengthAdjust="spacingAndGlyphs" xml:space="preserve" fill="#a78bfa" fill-opacity="0.55" font-weight="600">· real-debrid.com</text>
    <rect x="784.9" y="266" width="1.4" height="22" fill="#a78bfa"/>
    <text x="60.8" y="304" textLength="48" lengthAdjust="spacingAndGlyphs" xml:space="preserve" fill-opacity="0.55">Music</text>
    <rect x="237.7" y="288" width="1.4" height="22" fill="#a78bfa"/>
    <text x="272" y="304" textLength="19.2" lengthAdjust="spacingAndGlyphs" xml:space="preserve" fill="#86d6a2">TB</text>
    <text x="329.6" y="304" textLength="192" lengthAdjust="spacingAndGlyphs" xml:space="preserve" fill-opacity="0.55">· Not connectedx.app</text>
    <text x="684.8" y="304" textLength="9.6" lengthAdjust="spacingAndGlyphs" xml:space="preserve" fill="#b9a7e6">↵</text>
    <text x="704" y="304" textLength="67.2" lengthAdjust="spacingAndGlyphs" xml:space="preserve" fill-opacity="0.55">sign in</text>
    <rect x="784.9" y="288" width="1.4" height="22" fill="#a78bfa"/>
    <text x="60.8" y="326" textLength="48" lengthAdjust="spacingAndGlyphs" xml:space="preserve" fill-opacity="0.55">Books</text>
    <rect x="237.7" y="310" width="1.4" height="22" fill="#a78bfa"/>
    <rect x="784.9" y="310" width="1.4" height="22" fill="#a78bfa"/>
    <rect x="237.7" y="332" width="1.4" height="22" fill="#a78bfa"/>
    <text x="272" y="348" textLength="28.8" lengthAdjust="spacingAndGlyphs" xml:space="preserve" fill="#8fce5a">RUT</text>
    <text x="329.6" y="348" textLength="9.6" lengthAdjust="spacingAndGlyphs" xml:space="preserve" fill="#86d6a2">✓</text>
    <text x="348.8" y="348" textLength="153.6" lengthAdjust="spacingAndGlyphs" xml:space="preserve" fill-opacity="0.55">Signed in as you</text>
    <text x="550.4" y="348" textLength="9.6" lengthAdjust="spacingAndGlyphs" xml:space="preserve" fill="#b9a7e6">↵</text>
    <text x="569.6" y="348" textLength="86.4" lengthAdjust="spacingAndGlyphs" xml:space="preserve" fill-opacity="0.55">switch  ·</text>
    <text x="675.2" y="348" textLength="9.6" lengthAdjust="spacingAndGlyphs" xml:space="preserve" fill="#b9a7e6">x</text>
    <text x="694.4" y="348" textLength="76.8" lengthAdjust="spacingAndGlyphs" xml:space="preserve" fill-opacity="0.55">sign out</text>
    <rect x="784.9" y="332" width="1.4" height="22" fill="#a78bfa"/>
    <text x="60.8" y="370" textLength="163.2" lengthAdjust="spacingAndGlyphs" xml:space="preserve" fill-opacity="0.55">Continue watching</text>
    <rect x="237.7" y="354" width="1.4" height="22" fill="#a78bfa"/>
    <text x="329.6" y="370" textLength="124.8" lengthAdjust="spacingAndGlyphs" xml:space="preserve" fill-opacity="0.55">rutracker.org</text>
    <rect x="784.9" y="354" width="1.4" height="22" fill="#a78bfa"/>
    <text x="60.8" y="392" textLength="134.4" lengthAdjust="spacingAndGlyphs" xml:space="preserve" fill-opacity="0.55">Saved searches</text>
    <rect x="237.7" y="376" width="1.4" height="22" fill="#a78bfa"/>
    <text x="272" y="392" textLength="28.8" lengthAdjust="spacingAndGlyphs" xml:space="preserve" fill="#a78bfa">RCD</text>
    <text x="329.6" y="392" textLength="76.8" lengthAdjust="spacingAndGlyphs" xml:space="preserve" fill-opacity="0.55">reccd  ·</text>
    <text x="473.6" y="392" textLength="9.6" lengthAdjust="spacingAndGlyphs" xml:space="preserve" fill="#b9a7e6">↵</text>
    <text x="492.8" y="392" textLength="67.2" lengthAdjust="spacingAndGlyphs" xml:space="preserve" fill-opacity="0.55">edit  ·</text>
    <text x="579.2" y="392" textLength="9.6" lengthAdjust="spacingAndGlyphs" xml:space="preserve" fill="#b9a7e6">x</text>
    <text x="598.4" y="392" textLength="76.8" lengthAdjust="spacingAndGlyphs" xml:space="preserve" fill-opacity="0.55">clear  ·</text>
    <text x="694.4" y="392" textLength="9.6" lengthAdjust="spacingAndGlyphs" xml:space="preserve" fill="#b9a7e6">i</text>
    <text x="713.6" y="392" textLength="57.6" lengthAdjust="spacingAndGlyphs" xml:space="preserve" fill-opacity="0.55">import</text>
    <rect x="784.9" y="376" width="1.4" height="22" fill="#a78bfa"/>
    <text x="60.8" y="414" textLength="67.2" lengthAdjust="spacingAndGlyphs" xml:space="preserve" fill-opacity="0.55">Library</text>
    <rect x="237.7" y="398" width="1.4" height="22" fill="#a78bfa"/>
    <text x="329.6" y="414" textLength="9.6" lengthAdjust="spacingAndGlyphs" xml:space="preserve" fill="#86d6a2">✓</text>
    <text x="348.8" y="414" textLength="105.6" lengthAdjust="spacingAndGlyphs" xml:space="preserve" fill-opacity="0.55">Connected ·</text>
    <rect x="784.9" y="398" width="1.4" height="22" fill="#a78bfa"/>
    <text x="60.8" y="436" textLength="86.4" lengthAdjust="spacingAndGlyphs" xml:space="preserve" fill-opacity="0.55">Downloads</text>
    <rect x="237.7" y="420" width="1.4" height="22" fill="#a78bfa"/>
    <text x="329.6" y="436" textLength="134.4" lengthAdjust="spacingAndGlyphs" xml:space="preserve" fill-opacity="0.55">reccd.local:41</text>
    <rect x="784.9" y="420" width="1.4" height="22" fill="#a78bfa"/>
    <text x="60.8" y="458" textLength="67.2" lengthAdjust="spacingAndGlyphs" xml:space="preserve" fill-opacity="0.55">Seeding</text>
    <rect x="237.7" y="442" width="1.4" height="22" fill="#a78bfa"/>
    <text x="272" y="458" textLength="38.4" lengthAdjust="spacingAndGlyphs" xml:space="preserve" fill="#f5c518">OMDb</text>
    <text x="329.6" y="458" textLength="9.6" lengthAdjust="spacingAndGlyphs" xml:space="preserve" fill="#86d6a2">✓</text>
    <text x="348.8" y="458" textLength="230.4" lengthAdjust="spacingAndGlyphs" xml:space="preserve" fill-opacity="0.55">Key setmdbapi.com · plot</text>
    <text x="598.4" y="458" textLength="9.6" lengthAdjust="spacingAndGlyphs" xml:space="preserve" fill="#b9a7e6">↵</text>
    <text x="617.6" y="458" textLength="67.2" lengthAdjust="spacingAndGlyphs" xml:space="preserve" fill-opacity="0.55">edit  ·</text>
    <text x="704" y="458" textLength="9.6" lengthAdjust="spacingAndGlyphs" xml:space="preserve" fill="#b9a7e6">x</text>
    <text x="723.2" y="458" textLength="48" lengthAdjust="spacingAndGlyphs" xml:space="preserve" fill-opacity="0.55">clear</text>
    <rect x="784.9" y="442" width="1.4" height="22" fill="#a78bfa"/>
    <rect x="41.6" y="464" width="4.8" height="22" fill="#6b6577"/>
    <text x="60.8" y="480" textLength="76.8" lengthAdjust="spacingAndGlyphs" xml:space="preserve" fill="#b9a7e6">Accounts</text>
    <text x="233.6" y="480" textLength="556.8" lengthAdjust="spacingAndGlyphs" xml:space="preserve" fill="#a78bfa">╰────────────────────────────────────────────────────────╯</text>
    <text x="41.6" y="502" textLength="38.4" lengthAdjust="spacingAndGlyphs" xml:space="preserve" fill="#b9a7e6">↑↓←→</text>
    <text x="89.6" y="502" textLength="38.4" lengthAdjust="spacingAndGlyphs" xml:space="preserve" fill-opacity="0.55">Move</text>
    <text x="156.8" y="502" textLength="9.6" lengthAdjust="spacingAndGlyphs" xml:space="preserve" fill="#b9a7e6">↵</text>
    <text x="176" y="502" textLength="67.2" lengthAdjust="spacingAndGlyphs" xml:space="preserve" fill-opacity="0.55">Sign in</text>
    <text x="272" y="502" textLength="9.6" lengthAdjust="spacingAndGlyphs" xml:space="preserve" fill="#b9a7e6">x</text>
    <text x="291.2" y="502" textLength="76.8" lengthAdjust="spacingAndGlyphs" xml:space="preserve" fill-opacity="0.55">Sign out</text>
    <text x="396.8" y="502" textLength="9.6" lengthAdjust="spacingAndGlyphs" xml:space="preserve" fill="#b9a7e6">i</text>
    <text x="416" y="502" textLength="57.6" lengthAdjust="spacingAndGlyphs" xml:space="preserve" fill-opacity="0.55">Import</text>
    <text x="502.4" y="502" textLength="9.6" lengthAdjust="spacingAndGlyphs" xml:space="preserve" fill="#b9a7e6">a</text>
    <text x="521.6" y="502" textLength="28.8" lengthAdjust="spacingAndGlyphs" xml:space="preserve" fill-opacity="0.55">Use</text>
    <text x="579.2" y="502" textLength="28.8" lengthAdjust="spacingAndGlyphs" xml:space="preserve" fill="#b9a7e6">tab</text>
    <text x="617.6" y="502" textLength="57.6" lengthAdjust="spacingAndGlyphs" xml:space="preserve" fill-opacity="0.55">Switch</text>
    <text x="704" y="502" textLength="9.6" lengthAdjust="spacingAndGlyphs" xml:space="preserve" fill="#b9a7e6">?</text>
    <text x="723.2" y="502" textLength="38.4" lengthAdjust="spacingAndGlyphs" xml:space="preserve" fill-opacity="0.55">Keys</text>
  </g>
</svg>