<?xml version="1.0" encoding="UTF-8"?>
<svg xmlns="http://www.w3.org/2000/svg" width="832" height="452" viewBox="0 0 832 452" style="max-width: 832px; width: 100%; height: auto;" role="img">
  <rect width="100%" height="100%" rx="14" fill="#0a0810"/>
  <rect x="0.5" y="0.5" width="831" height="451" rx="14" fill="none" stroke="#2d2b31" stroke-width="1"/>
  <text x="416" y="23" text-anchor="middle" font-family='ui-monospace, "Cascadia Mono", "SF Mono", Menlo, Consolas, "DejaVu Sans Mono", monospace' font-size="13" fill="#8a8a8a">torlink</text>
  <g font-family='ui-monospace, "Cascadia Mono", "SF Mono", Menlo, Consolas, "DejaVu Sans Mono", monospace' font-size="16" fill="#ddd8ea">
    <text x="99.2" y="84" textLength="9.6" lengthAdjust="spacingAndGlyphs" xml:space="preserve" fill="#87ff87" font-weight="600">𐓏</text>
    <rect x="51.2" y="90" width="9.6" height="11" fill="#ffffff"/>
    <rect x="60.8" y="90" width="9.6" height="22" fill="#ffffff"/>
    <rect x="70.4" y="90" width="9.6" height="11" fill="#ffffff"/>
    <rect x="89.6" y="90" width="9.6" height="22" fill="#ffd7ff"/>
    <rect x="99.2" y="90" width="9.6" height="11" fill="#ffd7ff"/>
    <rect x="108.8" y="90" width="9.6" height="22" fill="#ffd7ff"/>
    <rect x="128" y="90" width="9.6" height="22" fill="#d7d7ff"/>
    <rect x="137.6" y="90" width="9.6" height="11" fill="#d7d7ff"/>
    <rect x="147.2" y="90" width="9.6" height="22" fill="#d7d7ff"/>
    <rect x="166.4" y="90" width="9.6" height="22" fill="#d7afff"/>
    <rect x="204.8" y="90" width="9.6" height="22" fill="#d7afff"/>
    <rect x="224" y="90" width="9.6" height="22" fill="#d7afff"/>
    <rect x="233.6" y="101" width="9.6" height="11" fill="#d7afff"/>
    <rect x="252.8" y="90" width="9.6" height="22" fill="#d7afff"/>
    <rect x="272" y="90" width="9.6" height="22" fill="#d7afff"/>
    <rect x="281.6" y="101" width="9.6" height="11" fill="#d7afff"/>
    <rect x="291.2" y="90" width="9.6" height="11" fill="#afafff"/>
    <rect x="310.4" y="101" width="9.6" height="11" fill="#afafff"/>
    <rect x="320" y="101" width="9.6" height="11" fill="#afafff"/>
    <rect x="339.2" y="90" width="9.6" height="22" fill="#afafff"/>
    <rect x="348.8" y="90" width="9.6" height="11" fill="#afafff"/>
    <rect x="358.4" y="90" width="9.6" height="22" fill="#afafff"/>
    <rect x="377.6" y="90" width="9.6" height="22" fill="#afafff"/>
    <rect x="387.2" y="90" width="9.6" height="11" fill="#af87ff"/>
    <rect x="396.8" y="101" width="9.6" height="11" fill="#af87ff"/>
    <rect x="60.8" y="112" width="9.6" height="22" fill="#af87ff"/>
    <rect x="89.6" y="112" width="9.6" height="22" fill="#af87ff"/>
    <rect x="99.2" y="123" width="9.6" height="11" fill="#af87d7"/>
    <rect x="108.8" y="112" width="9.6" height="22" fill="#af87d7"/>
    <rect x="128" y="112" width="9.6" height="22" fill="#af87d7"/>
    <rect x="137.6" y="112" width="9.6" height="11" fill="#af87d7"/>
    <rect x="147.2" y="123" width="9.6" height="11" fill="#af87d7"/>
    <rect x="166.4" y="112" width="9.6" height="22" fill="#8787d7"/>
    <rect x="176" y="123" width="9.6" height="11" fill="#8787d7"/>
    <rect x="185.6" y="123" width="9.6" height="11" fill="#8787d7"/>
    <rect x="204.8" y="112" width="9.6" height="22" fill="#8787d7"/>
    <rect x="224" y="112" width="9.6" height="22" fill="#8787d7"/>
    <rect x="243.2" y="112" width="9.6" height="11" fill="#8787d7"/>
    <rect x="252.8" y="112" width="9.6" height="22" fill="#8787d7"/>
    <rect x="272" y="112" width="9.6" height="22" fill="#8787d7"/>
    <rect x="291.2" y="112" width="9.6" height="22" fill="#875faf"/>
    <rect x="339.2" y="112" width="9.6" height="22" fill="#875faf"/>
    <rect x="348.8" y="112" width="9.6" height="11" fill="#875faf"/>
    <rect x="358.4" y="123" width="9.6" height="11" fill="#875faf"/>
    <rect x="377.6" y="112" width="9.6" height="22" fill="#875faf"/>
    <rect x="387.2" y="123" width="9.6" height="11" fill="#875faf"/>
    <rect x="396.8" y="112" width="9.6" height="11" fill="#5f5faf"/>
    <text x="41.6" y="150" textLength="748.8" lengthAdjust="spacingAndGlyphs" xml:space="preserve" fill="#878787">──────────────────────────────────────────────────────────────────────────────</text>
    <text x="60.8" y="194" textLength="28.8" lengthAdjust="spacingAndGlyphs" xml:space="preserve" fill-opacity="0.55">All</text>
    <text x="204.8" y="194" textLength="19.2" lengthAdjust="spacingAndGlyphs" xml:space="preserve" fill="#afafff">╭─</text>
    <text x="233.6" y="194" textLength="105.6" lengthAdjust="spacingAndGlyphs" xml:space="preserve" fill="#afafff" font-weight="600">Seeding (1)</text>
    <text x="348.8" y="194" textLength="441.6" lengthAdjust="spacingAndGlyphs" xml:space="preserve" fill="#afafff">─────────────────────────────────────────────╮</text>
    <text x="60.8" y="216" textLength="48" lengthAdjust="spacingAndGlyphs" xml:space="preserve" fill-opacity="0.55">Games</text>
    <rect x="208.9" y="200" width="1.4" height="22" fill="#afafff"/>
    <text x="224" y="216" textLength="96" lengthAdjust="spacingAndGlyphs" xml:space="preserve" fill="#afd7af">↑ 1.3 MB/s</text>
    <text x="339.2" y="216" textLength="336" lengthAdjust="spacingAndGlyphs" xml:space="preserve" fill="#afd7af" fill-opacity="0.55">·  12 peers  ·  8.02 GB shared back</text>
    <rect x="784.9" y="200" width="1.4" height="22" fill="#afafff"/>
    <text x="60.8" y="238" textLength="57.6" lengthAdjust="spacingAndGlyphs" xml:space="preserve" fill-opacity="0.55">TVvies</text>
    <rect x="208.9" y="222" width="1.4" height="22" fill="#afafff"/>
    <rect x="784.9" y="222" width="1.4" height="22" fill="#afafff"/>
    <text x="60.8" y="260" textLength="48" lengthAdjust="spacingAndGlyphs" xml:space="preserve" fill-opacity="0.55">Anime</text>
    <rect x="208.9" y="244" width="1.4" height="22" fill="#afafff"/>
    <text x="272" y="260" textLength="38.4" lengthAdjust="spacingAndGlyphs" xml:space="preserve" fill-opacity="0.55" font-weight="600">Name</text>
    <text x="540.8" y="260" textLength="38.4" lengthAdjust="spacingAndGlyphs" xml:space="preserve" fill-opacity="0.55" font-weight="600">Size</text>
    <text x="665.6" y="260" textLength="57.6" lengthAdjust="spacingAndGlyphs" xml:space="preserve" fill-opacity="0.55" font-weight="600">Status</text>
    <text x="742.4" y="260" textLength="28.8" lengthAdjust="spacingAndGlyphs" xml:space="preserve" fill-opacity="0.55" font-weight="600">Src</text>
    <rect x="784.9" y="244" width="1.4" height="22" fill="#afafff"/>
    <text x="60.8" y="282" textLength="48" lengthAdjust="spacingAndGlyphs" xml:space="preserve" fill-opacity="0.55">Music</text>
    <rect x="208.9" y="266" width="1.4" height="22" fill="#afafff"/>
    <text x="224" y="282" textLength="9.6" lengthAdjust="spacingAndGlyphs" xml:space="preserve" fill="#afafff" font-weight="600">❯</text>
    <text x="243.2" y="282" textLength="9.6" lengthAdjust="spacingAndGlyphs" xml:space="preserve" fill="#afd7af">↑</text>
    <text x="272" y="282" textLength="201.6" lengthAdjust="spacingAndGlyphs" xml:space="preserve" fill="#afafff" font-weight="600">Elden Ring: Shadow o…</text>
    <text x="502.4" y="282" textLength="76.8" lengthAdjust="spacingAndGlyphs" xml:space="preserve" fill-opacity="0.55">50.29 GB</text>
    <text x="598.4" y="282" textLength="124.8" lengthAdjust="spacingAndGlyphs" xml:space="preserve" fill="#afd7af">↑1.3 MB/s •12</text>
    <text x="752" y="282" textLength="19.2" lengthAdjust="spacingAndGlyphs" xml:space="preserve" fill="#afafff">FG</text>
    <rect x="784.9" y="266" width="1.4" height="22" fill="#afafff"/>
    <text x="60.8" y="304" textLength="48" lengthAdjust="spacingAndGlyphs" xml:space="preserve" fill-opacity="0.55">Books</text>
    <rect x="208.9" y="288" width="1.4" height="22" fill="#afafff"/>
    <text x="243.2" y="304" textLength="9.6" lengthAdjust="spacingAndGlyphs" xml:space="preserve" fill="#8787af">⏸</text>
    <text x="272" y="304" textLength="201.6" lengthAdjust="spacingAndGlyphs" xml:space="preserve" fill-opacity="0.55">Breaking Bad S05E14 …</text>
    <text x="512" y="304" textLength="67.2" lengthAdjust="spacingAndGlyphs" xml:space="preserve" fill-opacity="0.55">1.49 GB</text>
    <text x="665.6" y="304" textLength="57.6" lengthAdjust="spacingAndGlyphs" xml:space="preserve" fill-opacity="0.55">paused</text>
    <text x="732.8" y="304" textLength="38.4" lengthAdjust="spacingAndGlyphs" xml:space="preserve" fill="#ffd787" fill-opacity="0.55">EZTV</text>
    <rect x="784.9" y="288" width="1.4" height="22" fill="#afafff"/>
    <text x="60.8" y="326" textLength="86.4" lengthAdjust="spacingAndGlyphs" xml:space="preserve" fill-opacity="0.55">Watchlist</text>
    <rect x="208.9" y="310" width="1.4" height="22" fill="#afafff"/>
    <rect x="784.9" y="310" width="1.4" height="22" fill="#afafff"/>
    <text x="60.8" y="348" textLength="67.2" lengthAdjust="spacingAndGlyphs" xml:space="preserve" fill-opacity="0.55">Library</text>
    <rect x="208.9" y="332" width="1.4" height="22" fill="#afafff"/>
    <rect x="784.9" y="332" width="1.4" height="22" fill="#afafff"/>
    <rect x="41.6" y="354" width="4.8" height="22" fill="#878787"/>
    <text x="60.8" y="370" textLength="67.2" lengthAdjust="spacingAndGlyphs" xml:space="preserve" fill="#d7afff">Seeding</text>
    <text x="137.6" y="370" textLength="28.8" lengthAdjust="spacingAndGlyphs" xml:space="preserve" fill-opacity="0.55">(1)</text>
    <rect x="208.9" y="354" width="1.4" height="22" fill="#afafff"/>
    <rect x="784.9" y="354" width="1.4" height="22" fill="#afafff"/>
    <text x="60.8" y="392" textLength="76.8" lengthAdjust="spacingAndGlyphs" xml:space="preserve" fill-opacity="0.55">Accounts</text>
    <text x="204.8" y="392" textLength="585.6" lengthAdjust="spacingAndGlyphs" xml:space="preserve" fill="#afafff">╰───────────────────────────────────────────────────────────╯</text>
    <text x="41.6" y="414" textLength="9.6" lengthAdjust="spacingAndGlyphs" xml:space="preserve" fill="#d7afff">p</text>
    <text x="60.8" y="414" textLength="57.6" lengthAdjust="spacingAndGlyphs" xml:space="preserve" fill-opacity="0.55">Resume</text>
    <text x="147.2" y="414" textLength="9.6" lengthAdjust="spacingAndGlyphs" xml:space="preserve" fill="#d7afff">c</text>
    <text x="166.4" y="414" textLength="153.6" lengthAdjust="spacingAndGlyphs" xml:space="preserve" fill-opacity="0.55">Remove from list</text>
    <text x="348.8" y="414" textLength="9.6" lengthAdjust="spacingAndGlyphs" xml:space="preserve" fill="#d7afff">e</text>
    <text x="368" y="414" textLength="57.6" lengthAdjust="spacingAndGlyphs" xml:space="preserve" fill-opacity="0.55">Folder</text>
    <text x="454.4" y="414" textLength="28.8" lengthAdjust="spacingAndGlyphs" xml:space="preserve" fill="#d7afff">tab</text>
    <text x="492.8" y="414" textLength="57.6" lengthAdjust="spacingAndGlyphs" xml:space="preserve" fill-opacity="0.55">Switch</text>
    <text x="579.2" y="414" textLength="9.6" lengthAdjust="spacingAndGlyphs" xml:space="preserve" fill="#d7afff">?</text>
    <text x="598.4" y="414" textLength="38.4" lengthAdjust="spacingAndGlyphs" xml:space="preserve" fill-opacity="0.55">Keys</text>
  </g>
</svg>