<?xml version="1.0" encoding="UTF-8"?>
<svg xmlns="http://www.w3.org/2000/svg" width="832" height="914" viewBox="0 0 832 914" style="max-width: 832px; width: 100%; height: auto;" role="img">
  <rect width="100%" height="100%" rx="14" fill="#0a0810"/>
  <rect x="0.5" y="0.5" width="831" height="913" rx="14" fill="none" stroke="#2d2b31" stroke-width="1"/>
  <text x="416" y="23" text-anchor="middle" font-family='ui-monospace, "Cascadia Mono", "SF Mono", Menlo, Consolas, "DejaVu Sans Mono", monospace' font-size="13" fill="#8a8a8a">torlink</text>
  <g font-family='ui-monospace, "Cascadia Mono", "SF Mono", Menlo, Consolas, "DejaVu Sans Mono", monospace' font-size="16" fill="#ddd8ea">
    <text x="99.2" y="84" textLength="9.6" lengthAdjust="spacingAndGlyphs" xml:space="preserve" fill="#87ff87" font-weight="600">𐓏</text>
    <rect x="51.2" y="90" width="9.6" height="11" fill="#ffffff"/>
    <rect x="60.8" y="90" width="9.6" height="22" fill="#ffffff"/>
    <rect x="70.4" y="90" width="9.6" height="11" fill="#ffffff"/>
    <rect x="89.6" y="90" width="9.6" height="22" fill="#ffd7ff"/>
    <rect x="99.2" y="90" width="9.6" height="11" fill="#ffd7ff"/>
    <rect x="108.8" y="90" width="9.6" height="22" fill="#ffd7ff"/>
    <rect x="128" y="90" width="9.6" height="22" fill="#d7d7ff"/>
    <rect x="137.6" y="90" width="9.6" height="11" fill="#d7d7ff"/>
    <rect x="147.2" y="90" width="9.6" height="22" fill="#d7d7ff"/>
    <rect x="166.4" y="90" width="9.6" height="22" fill="#d7afff"/>
    <rect x="204.8" y="90" width="9.6" height="22" fill="#d7afff"/>
    <rect x="224" y="90" width="9.6" height="22" fill="#d7afff"/>
    <rect x="233.6" y="101" width="9.6" height="11" fill="#d7afff"/>
    <rect x="252.8" y="90" width="9.6" height="22" fill="#d7afff"/>
    <rect x="272" y="90" width="9.6" height="22" fill="#d7afff"/>
    <rect x="281.6" y="101" width="9.6" height="11" fill="#d7afff"/>
    <rect x="291.2" y="90" width="9.6" height="11" fill="#afafff"/>
    <rect x="310.4" y="101" width="9.6" height="11" fill="#afafff"/>
    <rect x="320" y="101" width="9.6" height="11" fill="#afafff"/>
    <rect x="339.2" y="90" width="9.6" height="22" fill="#afafff"/>
    <rect x="348.8" y="90" width="9.6" height="11" fill="#afafff"/>
    <rect x="358.4" y="90" width="9.6" height="22" fill="#afafff"/>
    <rect x="377.6" y="90" width="9.6" height="22" fill="#afafff"/>
    <rect x="387.2" y="90" width="9.6" height="11" fill="#af87ff"/>
    <rect x="396.8" y="101" width="9.6" height="11" fill="#af87ff"/>
    <rect x="60.8" y="112" width="9.6" height="22" fill="#af87ff"/>
    <rect x="89.6" y="112" width="9.6" height="22" fill="#af87ff"/>
    <rect x="99.2" y="123" width="9.6" height="11" fill="#af87d7"/>
    <rect x="108.8" y="112" width="9.6" height="22" fill="#af87d7"/>
    <rect x="128" y="112" width="9.6" height="22" fill="#af87d7"/>
    <rect x="137.6" y="112" width="9.6" height="11" fill="#af87d7"/>
    <rect x="147.2" y="123" width="9.6" height="11" fill="#af87d7"/>
    <rect x="166.4" y="112" width="9.6" height="22" fill="#8787d7"/>
    <rect x="176" y="123" width="9.6" height="11" fill="#8787d7"/>
    <rect x="185.6" y="123" width="9.6" height="11" fill="#8787d7"/>
    <rect x="204.8" y="112" width="9.6" height="22" fill="#8787d7"/>
    <rect x="224" y="112" width="9.6" height="22" fill="#8787d7"/>
    <rect x="243.2" y="112" width="9.6" height="11" fill="#8787d7"/>
    <rect x="252.8" y="112" width="9.6" height="22" fill="#8787d7"/>
    <rect x="272" y="112" width="9.6" height="22" fill="#8787d7"/>
    <rect x="291.2" y="112" width="9.6" height="22" fill="#875faf"/>
    <rect x="339.2" y="112" width="9.6" height="22" fill="#875faf"/>
    <rect x="348.8" y="112" width="9.6" height="11" fill="#875faf"/>
    <rect x="358.4" y="123" width="9.6" height="11" fill="#875faf"/>
    <rect x="377.6" y="112" width="9.6" height="22" fill="#875faf"/>
    <rect x="387.2" y="123" width="9.6" height="11" fill="#875faf"/>
    <rect x="396.8" y="112" width="9.6" height="11" fill="#5f5faf"/>
    <text x="41.6" y="150" textLength="748.8" lengthAdjust="spacingAndGlyphs" xml:space="preserve" fill="#878787">──────────────────────────────────────────────────────────────────────────────</text>
    <text x="41.6" y="194" textLength="19.2" lengthAdjust="spacingAndGlyphs" xml:space="preserve" fill="#afafff">╭─</text>
    <text x="70.4" y="194" textLength="124.8" lengthAdjust="spacingAndGlyphs" xml:space="preserve" fill="#afafff" font-weight="600">Sources 19/21</text>
    <text x="204.8" y="194" textLength="432" lengthAdjust="spacingAndGlyphs" xml:space="preserve" fill="#afafff">────────────────────────────────────────────╮</text>
    <rect x="45.7" y="200" width="1.4" height="22" fill="#afafff"/>
    <text x="60.8" y="216" textLength="48" lengthAdjust="spacingAndGlyphs" xml:space="preserve" fill-opacity="0.55">Games</text>
    <rect x="631.3" y="200" width="1.4" height="22" fill="#afafff"/>
    <rect x="45.7" y="222" width="1.4" height="22" fill="#afafff"/>
    <text x="60.8" y="238" textLength="9.6" lengthAdjust="spacingAndGlyphs" xml:space="preserve" fill="#afafff">❯</text>
    <text x="80" y="238" textLength="9.6" lengthAdjust="spacingAndGlyphs" xml:space="preserve" fill="#afd7af">✓</text>
    <text x="99.2" y="238" textLength="67.2" lengthAdjust="spacingAndGlyphs" xml:space="preserve" fill="#ffd7ff">FitGirl</text>
    <text x="185.6" y="238" textLength="19.2" lengthAdjust="spacingAndGlyphs" xml:space="preserve" fill="#afafff">FG</text>
    <rect x="631.3" y="222" width="1.4" height="22" fill="#afafff"/>
    <rect x="45.7" y="244" width="1.4" height="22" fill="#afafff"/>
    <text x="80" y="260" textLength="9.6" lengthAdjust="spacingAndGlyphs" xml:space="preserve" fill="#afd7af">✓</text>
    <text x="99.2" y="260" textLength="86.4" lengthAdjust="spacingAndGlyphs" xml:space="preserve" fill="#ffd7ff">RuTracker</text>
    <text x="204.8" y="260" textLength="28.8" lengthAdjust="spacingAndGlyphs" xml:space="preserve" fill="#afd787">RUT</text>
    <rect x="631.3" y="244" width="1.4" height="22" fill="#afafff"/>
    <rect x="45.7" y="266" width="1.4" height="22" fill="#afafff"/>
    <text x="60.8" y="282" textLength="57.6" lengthAdjust="spacingAndGlyphs" xml:space="preserve" fill-opacity="0.55">Movies</text>
    <rect x="631.3" y="266" width="1.4" height="22" fill="#afafff"/>
    <rect x="45.7" y="288" width="1.4" height="22" fill="#afafff"/>
    <text x="80" y="304" textLength="9.6" lengthAdjust="spacingAndGlyphs" xml:space="preserve" fill="#afd7af">✓</text>
    <text x="99.2" y="304" textLength="28.8" lengthAdjust="spacingAndGlyphs" xml:space="preserve" fill="#ffd7ff">YTS</text>
    <text x="147.2" y="304" textLength="28.8" lengthAdjust="spacingAndGlyphs" xml:space="preserve" fill="#afd7af">YTS</text>
    <rect x="631.3" y="288" width="1.4" height="22" fill="#afafff"/>
    <rect x="45.7" y="310" width="1.4" height="22" fill="#afafff"/>
    <text x="80" y="326" textLength="9.6" lengthAdjust="spacingAndGlyphs" xml:space="preserve" fill="#afd7af">✓</text>
    <text x="99.2" y="326" textLength="28.8" lengthAdjust="spacingAndGlyphs" xml:space="preserve" fill="#ffd7ff">TPB</text>
    <text x="147.2" y="326" textLength="28.8" lengthAdjust="spacingAndGlyphs" xml:space="preserve" fill="#87d7d7">TPB</text>
    <rect x="631.3" y="310" width="1.4" height="22" fill="#afafff"/>
    <rect x="45.7" y="332" width="1.4" height="22" fill="#afafff"/>
    <text x="80" y="348" textLength="9.6" lengthAdjust="spacingAndGlyphs" xml:space="preserve" fill="#afd7af">✓</text>
    <text x="99.2" y="348" textLength="48" lengthAdjust="spacingAndGlyphs" xml:space="preserve" fill="#ffd7ff">1337x</text>
    <text x="166.4" y="348" textLength="38.4" lengthAdjust="spacingAndGlyphs" xml:space="preserve" fill="#ffaf87">1337</text>
    <rect x="631.3" y="332" width="1.4" height="22" fill="#afafff"/>
    <rect x="45.7" y="354" width="1.4" height="22" fill="#afafff"/>
    <text x="80" y="370" textLength="9.6" lengthAdjust="spacingAndGlyphs" xml:space="preserve" fill="#ff87af">✗</text>
    <text x="99.2" y="370" textLength="115.2" lengthAdjust="spacingAndGlyphs" xml:space="preserve" fill="#d7afff" fill-opacity="0.55">Torrents.csv</text>
    <text x="233.6" y="370" textLength="28.8" lengthAdjust="spacingAndGlyphs" xml:space="preserve" fill="#87d7ff" fill-opacity="0.55">CSV</text>
    <rect x="631.3" y="354" width="1.4" height="22" fill="#afafff"/>
    <rect x="45.7" y="376" width="1.4" height="22" fill="#afafff"/>
    <text x="80" y="392" textLength="9.6" lengthAdjust="spacingAndGlyphs" xml:space="preserve" fill="#afd7af">✓</text>
    <text x="99.2" y="392" textLength="86.4" lengthAdjust="spacingAndGlyphs" xml:space="preserve" fill="#ffd7ff">RuTracker</text>
    <text x="204.8" y="392" textLength="28.8" lengthAdjust="spacingAndGlyphs" xml:space="preserve" fill="#afd787">RUT</text>
    <rect x="631.3" y="376" width="1.4" height="22" fill="#afafff"/>
    <rect x="45.7" y="398" width="1.4" height="22" fill="#afafff"/>
    <text x="80" y="414" textLength="9.6" lengthAdjust="spacingAndGlyphs" xml:space="preserve" fill="#afd7af">✓</text>
    <text x="99.2" y="414" textLength="115.2" lengthAdjust="spacingAndGlyphs" xml:space="preserve" fill="#ffd7ff">BitTorrented</text>
    <text x="233.6" y="414" textLength="19.2" lengthAdjust="spacingAndGlyphs" xml:space="preserve" fill="#87d7ff">BT</text>
    <rect x="631.3" y="398" width="1.4" height="22" fill="#afafff"/>
    <rect x="45.7" y="420" width="1.4" height="22" fill="#afafff"/>
    <text x="60.8" y="436" textLength="19.2" lengthAdjust="spacingAndGlyphs" xml:space="preserve" fill-opacity="0.55">TV</text>
    <rect x="631.3" y="420" width="1.4" height="22" fill="#afafff"/>
    <rect x="45.7" y="442" width="1.4" height="22" fill="#afafff"/>
    <text x="80" y="458" textLength="9.6" lengthAdjust="spacingAndGlyphs" xml:space="preserve" fill="#afd7af">✓</text>
    <text x="99.2" y="458" textLength="38.4" lengthAdjust="spacingAndGlyphs" xml:space="preserve" fill="#ffd7ff">EZTV</text>
    <text x="156.8" y="458" textLength="38.4" lengthAdjust="spacingAndGlyphs" xml:space="preserve" fill="#ffd787">EZTV</text>
    <rect x="631.3" y="442" width="1.4" height="22" fill="#afafff"/>
    <rect x="45.7" y="464" width="1.4" height="22" fill="#afafff"/>
    <text x="80" y="480" textLength="9.6" lengthAdjust="spacingAndGlyphs" xml:space="preserve" fill="#afd7af">✓</text>
    <text x="99.2" y="480" textLength="28.8" lengthAdjust="spacingAndGlyphs" xml:space="preserve" fill="#ffd7ff">TPB</text>
    <text x="147.2" y="480" textLength="28.8" lengthAdjust="spacingAndGlyphs" xml:space="preserve" fill="#87d7d7">TPB</text>
    <rect x="631.3" y="464" width="1.4" height="22" fill="#afafff"/>
    <rect x="45.7" y="486" width="1.4" height="22" fill="#afafff"/>
    <text x="80" y="502" textLength="9.6" lengthAdjust="spacingAndGlyphs" xml:space="preserve" fill="#afd7af">✓</text>
    <text x="99.2" y="502" textLength="48" lengthAdjust="spacingAndGlyphs" xml:space="preserve" fill="#ffd7ff">1337x</text>
    <text x="166.4" y="502" textLength="38.4" lengthAdjust="spacingAndGlyphs" xml:space="preserve" fill="#ffaf87">1337</text>
    <rect x="631.3" y="486" width="1.4" height="22" fill="#afafff"/>
    <rect x="45.7" y="508" width="1.4" height="22" fill="#afafff"/>
    <text x="80" y="524" textLength="9.6" lengthAdjust="spacingAndGlyphs" xml:space="preserve" fill="#afd7af">✓</text>
    <text x="99.2" y="524" textLength="86.4" lengthAdjust="spacingAndGlyphs" xml:space="preserve" fill="#ffd7ff">RuTracker</text>
    <text x="204.8" y="524" textLength="28.8" lengthAdjust="spacingAndGlyphs" xml:space="preserve" fill="#afd787">RUT</text>
    <rect x="631.3" y="508" width="1.4" height="22" fill="#afafff"/>
    <rect x="45.7" y="530" width="1.4" height="22" fill="#afafff"/>
    <text x="80" y="546" textLength="9.6" lengthAdjust="spacingAndGlyphs" xml:space="preserve" fill="#afd7af">✓</text>
    <text x="99.2" y="546" textLength="115.2" lengthAdjust="spacingAndGlyphs" xml:space="preserve" fill="#ffd7ff">BitTorrented</text>
    <text x="233.6" y="546" textLength="19.2" lengthAdjust="spacingAndGlyphs" xml:space="preserve" fill="#87d7ff">BT</text>
    <rect x="631.3" y="530" width="1.4" height="22" fill="#afafff"/>
    <rect x="45.7" y="552" width="1.4" height="22" fill="#afafff"/>
    <text x="60.8" y="568" textLength="48" lengthAdjust="spacingAndGlyphs" xml:space="preserve" fill-opacity="0.55">Anime</text>
    <rect x="631.3" y="552" width="1.4" height="22" fill="#afafff"/>
    <rect x="45.7" y="574" width="1.4" height="22" fill="#afafff"/>
    <text x="80" y="590" textLength="9.6" lengthAdjust="spacingAndGlyphs" xml:space="preserve" fill="#afd7af">✓</text>
    <text x="99.2" y="590" textLength="38.4" lengthAdjust="spacingAndGlyphs" xml:space="preserve" fill="#ffd7ff">Nyaa</text>
    <text x="156.8" y="590" textLength="38.4" lengthAdjust="spacingAndGlyphs" xml:space="preserve" fill="#d7d7ff">NYAA</text>
    <rect x="631.3" y="574" width="1.4" height="22" fill="#afafff"/>
    <rect x="45.7" y="596" width="1.4" height="22" fill="#afafff"/>
    <text x="80" y="612" textLength="9.6" lengthAdjust="spacingAndGlyphs" xml:space="preserve" fill="#afd7af">✓</text>
    <text x="99.2" y="612" textLength="96" lengthAdjust="spacingAndGlyphs" xml:space="preserve" fill="#ffd7ff">SubsPlease</text>
    <text x="214.4" y="612" textLength="28.8" lengthAdjust="spacingAndGlyphs" xml:space="preserve" fill="#d7afff">SUB</text>
    <rect x="631.3" y="596" width="1.4" height="22" fill="#afafff"/>
    <rect x="45.7" y="618" width="1.4" height="22" fill="#afafff"/>
    <text x="80" y="634" textLength="9.6" lengthAdjust="spacingAndGlyphs" xml:space="preserve" fill="#afd7af">✓</text>
    <text x="99.2" y="634" textLength="86.4" lengthAdjust="spacingAndGlyphs" xml:space="preserve" fill="#ffd7ff">RuTracker</text>
    <text x="204.8" y="634" textLength="28.8" lengthAdjust="spacingAndGlyphs" xml:space="preserve" fill="#afd787">RUT</text>
    <rect x="631.3" y="618" width="1.4" height="22" fill="#afafff"/>
    <rect x="45.7" y="640" width="1.4" height="22" fill="#afafff"/>
    <text x="60.8" y="656" textLength="48" lengthAdjust="spacingAndGlyphs" xml:space="preserve" fill-opacity="0.55">Music</text>
    <rect x="631.3" y="640" width="1.4" height="22" fill="#afafff"/>
    <rect x="45.7" y="662" width="1.4" height="22" fill="#afafff"/>
    <text x="80" y="678" textLength="9.6" lengthAdjust="spacingAndGlyphs" xml:space="preserve" fill="#afd7af">✓</text>
    <text x="99.2" y="678" textLength="28.8" lengthAdjust="spacingAndGlyphs" xml:space="preserve" fill="#ffd7ff">TPB</text>
    <text x="147.2" y="678" textLength="28.8" lengthAdjust="spacingAndGlyphs" xml:space="preserve" fill="#87d7d7">TPB</text>
    <rect x="631.3" y="662" width="1.4" height="22" fill="#afafff"/>
    <rect x="45.7" y="684" width="1.4" height="22" fill="#afafff"/>
    <text x="80" y="700" textLength="9.6" lengthAdjust="spacingAndGlyphs" xml:space="preserve" fill="#ff87af">✗</text>
    <text x="99.2" y="700" textLength="48" lengthAdjust="spacingAndGlyphs" xml:space="preserve" fill="#d7afff" fill-opacity="0.55">1337x</text>
    <text x="166.4" y="700" textLength="38.4" lengthAdjust="spacingAndGlyphs" xml:space="preserve" fill="#ffaf87" fill-opacity="0.55">1337</text>
    <rect x="631.3" y="684" width="1.4" height="22" fill="#afafff"/>
    <rect x="45.7" y="706" width="1.4" height="22" fill="#afafff"/>
    <text x="80" y="722" textLength="9.6" lengthAdjust="spacingAndGlyphs" xml:space="preserve" fill="#afd7af">✓</text>
    <text x="99.2" y="722" textLength="86.4" lengthAdjust="spacingAndGlyphs" xml:space="preserve" fill="#ffd7ff">RuTracker</text>
    <text x="204.8" y="722" textLength="28.8" lengthAdjust="spacingAndGlyphs" xml:space="preserve" fill="#afd787">RUT</text>
    <rect x="631.3" y="706" width="1.4" height="22" fill="#afafff"/>
    <rect x="45.7" y="728" width="1.4" height="22" fill="#afafff"/>
    <text x="60.8" y="744" textLength="48" lengthAdjust="spacingAndGlyphs" xml:space="preserve" fill-opacity="0.55">Books</text>
    <rect x="631.3" y="728" width="1.4" height="22" fill="#afafff"/>
    <rect x="45.7" y="750" width="1.4" height="22" fill="#afafff"/>
    <text x="80" y="766" textLength="9.6" lengthAdjust="spacingAndGlyphs" xml:space="preserve" fill="#afd7af">✓</text>
    <text x="99.2" y="766" textLength="28.8" lengthAdjust="spacingAndGlyphs" xml:space="preserve" fill="#ffd7ff">TPB</text>
    <text x="147.2" y="766" textLength="28.8" lengthAdjust="spacingAndGlyphs" xml:space="preserve" fill="#87d7d7">TPB</text>
    <rect x="631.3" y="750" width="1.4" height="22" fill="#afafff"/>
    <rect x="45.7" y="772" width="1.4" height="22" fill="#afafff"/>
    <text x="80" y="788" textLength="9.6" lengthAdjust="spacingAndGlyphs" xml:space="preserve" fill="#afd7af">✓</text>
    <text x="99.2" y="788" textLength="38.4" lengthAdjust="spacingAndGlyphs" xml:space="preserve" fill="#ffd7ff">Nyaa</text>
    <text x="156.8" y="788" textLength="38.4" lengthAdjust="spacingAndGlyphs" xml:space="preserve" fill="#d7d7ff">NYAA</text>
    <rect x="631.3" y="772" width="1.4" height="22" fill="#afafff"/>
    <rect x="45.7" y="794" width="1.4" height="22" fill="#afafff"/>
    <text x="80" y="810" textLength="9.6" lengthAdjust="spacingAndGlyphs" xml:space="preserve" fill="#afd7af">✓</text>
    <text x="99.2" y="810" textLength="86.4" lengthAdjust="spacingAndGlyphs" xml:space="preserve" fill="#ffd7ff">RuTracker</text>
    <text x="204.8" y="810" textLength="28.8" lengthAdjust="spacingAndGlyphs" xml:space="preserve" fill="#afd787">RUT</text>
    <rect x="631.3" y="794" width="1.4" height="22" fill="#afafff"/>
    <text x="41.6" y="832" textLength="595.2" lengthAdjust="spacingAndGlyphs" xml:space="preserve" fill="#afafff">╰────────────────────────────────────────────────────────────╯</text>
    <text x="41.6" y="876" textLength="19.2" lengthAdjust="spacingAndGlyphs" xml:space="preserve" fill="#d7afff">↑↓</text>
    <text x="70.4" y="876" textLength="96" lengthAdjust="spacingAndGlyphs" xml:space="preserve" fill-opacity="0.55">move     ·</text>
    <text x="214.4" y="876" textLength="48" lengthAdjust="spacingAndGlyphs" xml:space="preserve" fill="#d7afff">space</text>
    <text x="272" y="876" textLength="115.2" lengthAdjust="spacingAndGlyphs" xml:space="preserve" fill-opacity="0.55">toggle     ·</text>
    <text x="435.2" y="876" textLength="28.8" lengthAdjust="spacingAndGlyphs" xml:space="preserve" fill="#d7afff">esc</text>
    <text x="473.6" y="876" textLength="38.4" lengthAdjust="spacingAndGlyphs" xml:space="preserve" fill-opacity="0.55">done</text>
  </g>
</svg>